<mxfile host="app.diagrams.net" agent="Mozilla/5.0 (Macintosh; Intel Mac OS X 10_15_7) AppleWebKit/537.36 (KHTML, like Gecko) Chrome/131.0.0.0 Safari/537.36" version="26.0.4">
  <diagram name="Page-1" id="74b105a0-9070-1c63-61bc-23e55f88626e">
    <mxGraphModel dx="1445" dy="831" grid="1" gridSize="10" guides="1" tooltips="1" connect="1" arrows="1" fold="1" page="1" pageScale="1.5" pageWidth="1169" pageHeight="826" background="none" math="0" shadow="0">
      <root>
        <mxCell id="0" style=";html=1;" />
        <mxCell id="1" style=";html=1;" parent="0" />
        <mxCell id="ENWwhpHG7MEjwLkNOfyg-3" style="edgeStyle=orthogonalEdgeStyle;rounded=0;orthogonalLoop=1;jettySize=auto;html=1;exitX=1;exitY=0.5;exitDx=0;exitDy=0;entryX=0;entryY=0.5;entryDx=0;entryDy=0;startArrow=classic;startFill=1;" edge="1" parent="1" source="10b056a9c633e61c-4" target="ENWwhpHG7MEjwLkNOfyg-1">
          <mxGeometry relative="1" as="geometry" />
        </mxCell>
        <mxCell id="10b056a9c633e61c-4" value="Web &#xa;(React)" style="strokeWidth=2;dashed=0;align=center;fontSize=12;shape=rect;verticalLabelPosition=middle;verticalAlign=middle;fillColor=#c0f5a9;labelPosition=center;" parent="1" vertex="1">
          <mxGeometry x="630" y="450" width="150" height="90" as="geometry" />
        </mxCell>
        <mxCell id="10b056a9c633e61c-15" value="PostgresSQL" style="strokeWidth=2;dashed=0;align=center;fontSize=12;verticalLabelPosition=bottom;verticalAlign=top;shape=mxgraph.eip.message_store;fillColor=#c0f5a9" parent="1" vertex="1">
          <mxGeometry x="1510" y="490" width="150" height="90" as="geometry" />
        </mxCell>
        <mxCell id="10b056a9c633e61c-30" value="Взаимодействие сервисов" style="text;strokeColor=none;fillColor=none;html=1;fontSize=24;fontStyle=1;verticalAlign=middle;align=center;" parent="1" vertex="1">
          <mxGeometry x="90" y="40" width="1590" height="40" as="geometry" />
        </mxCell>
        <mxCell id="rK52frsf_3DjPm_S685B-2" value="BackEnd&#xa;(ASP.NET)" style="strokeWidth=2;dashed=0;align=center;fontSize=12;shape=rect;verticalLabelPosition=middle;verticalAlign=middle;fillColor=#c0f5a9;labelPosition=center;" parent="1" vertex="1">
          <mxGeometry x="1120" y="400" width="250" height="300" as="geometry" />
        </mxCell>
        <mxCell id="rK52frsf_3DjPm_S685B-15" style="edgeStyle=orthogonalEdgeStyle;rounded=0;orthogonalLoop=1;jettySize=auto;html=1;exitX=0.5;exitY=1;exitDx=0;exitDy=0;entryX=0.5;entryY=0;entryDx=0;entryDy=0;startArrow=classic;startFill=1;" parent="1" source="rK52frsf_3DjPm_S685B-3" target="rK52frsf_3DjPm_S685B-14" edge="1">
          <mxGeometry relative="1" as="geometry" />
        </mxCell>
        <mxCell id="rK52frsf_3DjPm_S685B-3" value="Модуль для работе&amp;nbsp;&lt;div&gt;с расписанием&amp;nbsp;&lt;/div&gt;&lt;div&gt;загрузки данных&lt;/div&gt;" style="rounded=0;whiteSpace=wrap;html=1;" parent="1" vertex="1">
          <mxGeometry x="1140" y="580" width="210" height="90" as="geometry" />
        </mxCell>
        <mxCell id="rK52frsf_3DjPm_S685B-4" value="Модуль для работы&amp;nbsp;&lt;div&gt;с клиентом по&amp;nbsp;&lt;span style=&quot;background-color: rgb(255, 255, 255); color: rgba(0, 0, 0, 0.85); font-family: &amp;quot;YS Text&amp;quot;, &amp;quot;Helvetica Neue&amp;quot;, Arial, Helvetica, sans-serif; font-size: var(--g-text-display-2-font-size); font-weight: var(--g-text-accent-font-weight); text-align: start;&quot;&gt;REST API&lt;/span&gt;&lt;/div&gt;" style="rounded=0;whiteSpace=wrap;html=1;" parent="1" vertex="1">
          <mxGeometry x="1140" y="425" width="210" height="90" as="geometry" />
        </mxCell>
        <mxCell id="rK52frsf_3DjPm_S685B-5" style="edgeStyle=orthogonalEdgeStyle;rounded=0;orthogonalLoop=1;jettySize=auto;html=1;exitX=1;exitY=0.5;exitDx=0;exitDy=0;entryX=0;entryY=0.75;entryDx=0;entryDy=0;entryPerimeter=0;startArrow=classic;startFill=1;" parent="1" source="rK52frsf_3DjPm_S685B-3" target="10b056a9c633e61c-15" edge="1">
          <mxGeometry relative="1" as="geometry" />
        </mxCell>
        <mxCell id="rK52frsf_3DjPm_S685B-12" style="edgeStyle=orthogonalEdgeStyle;rounded=0;orthogonalLoop=1;jettySize=auto;html=1;exitX=0.5;exitY=1;exitDx=0;exitDy=0;entryX=0.5;entryY=0;entryDx=0;entryDy=0;startArrow=classic;startFill=1;" parent="1" source="rK52frsf_3DjPm_S685B-7" target="rK52frsf_3DjPm_S685B-2" edge="1">
          <mxGeometry relative="1" as="geometry" />
        </mxCell>
        <mxCell id="rK52frsf_3DjPm_S685B-17" style="edgeStyle=orthogonalEdgeStyle;rounded=0;orthogonalLoop=1;jettySize=auto;html=1;startArrow=classic;startFill=1;" parent="1" source="rK52frsf_3DjPm_S685B-7" target="rK52frsf_3DjPm_S685B-16" edge="1">
          <mxGeometry relative="1" as="geometry" />
        </mxCell>
        <mxCell id="ENWwhpHG7MEjwLkNOfyg-4" style="edgeStyle=orthogonalEdgeStyle;rounded=0;orthogonalLoop=1;jettySize=auto;html=1;exitX=0;exitY=0.5;exitDx=0;exitDy=0;entryX=0.5;entryY=0;entryDx=0;entryDy=0;startArrow=classic;startFill=1;" edge="1" parent="1" source="rK52frsf_3DjPm_S685B-7" target="ENWwhpHG7MEjwLkNOfyg-1">
          <mxGeometry relative="1" as="geometry" />
        </mxCell>
        <mxCell id="rK52frsf_3DjPm_S685B-7" value="AppWrite &#xa;(сервис авторизации и &#xa;хранения пользовательских&#xa; настроек)" style="strokeWidth=2;dashed=0;align=center;fontSize=12;shape=rect;verticalLabelPosition=middle;verticalAlign=middle;fillColor=#c0f5a9;labelPosition=center;fontStyle=1" parent="1" vertex="1">
          <mxGeometry x="960" y="140" width="210" height="90" as="geometry" />
        </mxCell>
        <mxCell id="rK52frsf_3DjPm_S685B-14" value="OZON API" style="strokeWidth=2;dashed=0;align=center;fontSize=12;shape=rect;verticalLabelPosition=middle;verticalAlign=middle;fillColor=#c0f5a9;labelPosition=center;" parent="1" vertex="1">
          <mxGeometry x="1170" y="795" width="150" height="90" as="geometry" />
        </mxCell>
        <mxCell id="rK52frsf_3DjPm_S685B-16" value="MariaDB" style="strokeWidth=2;dashed=0;align=center;fontSize=12;verticalLabelPosition=bottom;verticalAlign=top;shape=mxgraph.eip.message_store;fillColor=#c0f5a9" parent="1" vertex="1">
          <mxGeometry x="1240" y="140" width="150" height="90" as="geometry" />
        </mxCell>
        <mxCell id="rK52frsf_3DjPm_S685B-18" style="edgeStyle=orthogonalEdgeStyle;rounded=0;orthogonalLoop=1;jettySize=auto;html=1;exitX=1;exitY=0.5;exitDx=0;exitDy=0;entryX=0.007;entryY=0.333;entryDx=0;entryDy=0;entryPerimeter=0;startArrow=classic;startFill=1;" parent="1" source="rK52frsf_3DjPm_S685B-4" target="10b056a9c633e61c-15" edge="1">
          <mxGeometry relative="1" as="geometry" />
        </mxCell>
        <mxCell id="QXMttP54Gm_CBYPSjJl8-2" style="edgeStyle=orthogonalEdgeStyle;rounded=0;orthogonalLoop=1;jettySize=auto;html=1;" parent="1" source="QXMttP54Gm_CBYPSjJl8-1" target="10b056a9c633e61c-4" edge="1">
          <mxGeometry relative="1" as="geometry" />
        </mxCell>
        <mxCell id="QXMttP54Gm_CBYPSjJl8-1" value="User" style="shape=umlActor;verticalLabelPosition=bottom;verticalAlign=top;html=1;outlineConnect=0;" parent="1" vertex="1">
          <mxGeometry x="480" y="465" width="30" height="60" as="geometry" />
        </mxCell>
        <mxCell id="ENWwhpHG7MEjwLkNOfyg-1" value="NGINX" style="rounded=0;whiteSpace=wrap;html=1;fillColor=light-dark(#c0f4a9, #295a0d);strokeColor=default;strokeWidth=2;" vertex="1" parent="1">
          <mxGeometry x="850" y="450" width="133" height="90" as="geometry" />
        </mxCell>
        <mxCell id="ENWwhpHG7MEjwLkNOfyg-2" style="edgeStyle=orthogonalEdgeStyle;rounded=0;orthogonalLoop=1;jettySize=auto;html=1;exitX=1;exitY=0.5;exitDx=0;exitDy=0;entryX=-0.014;entryY=0.316;entryDx=0;entryDy=0;entryPerimeter=0;startArrow=classic;startFill=1;" edge="1" parent="1" source="ENWwhpHG7MEjwLkNOfyg-1" target="rK52frsf_3DjPm_S685B-2">
          <mxGeometry relative="1" as="geometry" />
        </mxCell>
        <mxCell id="ENWwhpHG7MEjwLkNOfyg-7" style="edgeStyle=orthogonalEdgeStyle;rounded=0;orthogonalLoop=1;jettySize=auto;html=1;exitX=0.5;exitY=0.5;exitDx=0;exitDy=0;exitPerimeter=0;entryX=0.25;entryY=0;entryDx=0;entryDy=0;" edge="1" parent="1" source="ENWwhpHG7MEjwLkNOfyg-5" target="10b056a9c633e61c-4">
          <mxGeometry relative="1" as="geometry" />
        </mxCell>
        <mxCell id="ENWwhpHG7MEjwLkNOfyg-5" value="User" style="shape=umlActor;verticalLabelPosition=bottom;verticalAlign=top;html=1;outlineConnect=0;" vertex="1" parent="1">
          <mxGeometry x="540" y="340" width="30" height="60" as="geometry" />
        </mxCell>
        <mxCell id="ENWwhpHG7MEjwLkNOfyg-8" style="edgeStyle=orthogonalEdgeStyle;rounded=0;orthogonalLoop=1;jettySize=auto;html=1;exitX=0.5;exitY=0.5;exitDx=0;exitDy=0;exitPerimeter=0;entryX=0.25;entryY=1;entryDx=0;entryDy=0;" edge="1" parent="1" source="ENWwhpHG7MEjwLkNOfyg-6" target="10b056a9c633e61c-4">
          <mxGeometry relative="1" as="geometry" />
        </mxCell>
        <mxCell id="ENWwhpHG7MEjwLkNOfyg-6" value="User" style="shape=umlActor;verticalLabelPosition=bottom;verticalAlign=top;html=1;outlineConnect=0;" vertex="1" parent="1">
          <mxGeometry x="540" y="560" width="30" height="60" as="geometry" />
        </mxCell>
      </root>
    </mxGraphModel>
  </diagram>
</mxfile>
